<svg version="1.1" id="Layer_1" xmlns="http://www.w3.org/2000/svg" xmlns:xlink="http://www.w3.org/1999/xlink" x="0px" y="0px"
	 width="450px" height="165px" viewBox="0 0 450 165" enable-background="new 0 0 450 165" xml:space="preserve">
<g>
	<ellipse fill="#C1C1C1" cx="223" cy="120" rx="71" ry="39"/>
	<path fill="#C1C1C1" d="M132.1,120.4h9.3V138.1h-9.3v21H111v-21H75.8l-1.3-14L111,60.3v-0.2h21.1V120.4z M94.7,120.4h16.4V90
		l-1.3,2.3L94.7,120.4z"/>
	<path fill="#C1C1C1" d="M361.8,120.4h9.3V138.1h-9.3v21h-21.1v-21h-35.2l-1.2-14l36.5-63.8v-0.2H361.9v60.3H361.8L361.8,120.4z
		 M324.3,120.4h16.4V90l-1.3,2.3L324.3,120.4z"/>
	<path fill="#0497CB" d="M185.263,73.542c2.204,0,4.407,0,6.514,0c0.383,0,0.767,0,1.054,0c0.096,0,0.479-0.095,0.575,0
		c0.096,0.096,0,0.096,0,0.096c0.096,0.383,0,1.053,0,1.437c0,0.958,0,1.82,0,2.778l-0.096,21.073
		c0,9.197-0.096,18.488-0.096,27.686c0,7.566-0.095,15.039-0.095,22.605c0,0.861,0,1.727,0,2.684h16.476v-2.105
		c0-3.832,0-7.663,0-11.495c0-6.321,0-12.646,0.096-18.967v-0.384c3.065,0,6.131,0,9.1,0c2.97,0,5.94,0.096,8.813,0.384
		c2.777,0.287,5.748,0.671,8.433,1.728c3.257,1.242,6.032,3.639,7.948,6.606c1.82,2.873,2.49,6.319,2.396,9.676
		c0,3.354-0.671,6.704-2.396,9.578c-1.148,1.916-2.684,3.642-4.598,4.979h20.402c1.245-2.588,2.203-5.461,2.684-8.334
		c1.244-7.566-0.097-15.52-4.406-21.938c-3.258-4.98-8.43-8.525-13.983-10.441c6.896-3.256,11.396-9.674,12.935-17.146
		c1.529-7.664,0.096-15.806-4.406-22.224c-2.299-3.257-5.364-6.227-8.813-8.142c-3.448-1.916-7.28-2.586-11.112-3.065
		c-1.052-0.096-2.104-0.191-3.16-0.288c-0.383,0-1.147,0.096-1.34-0.191c-0.191-0.288,0-1.149,0-1.533c0-2.107,0-4.214,0-6.226
		c0-2.012,0-4.119,0-6.13c0-1.533,0.097-3.353-2.014-3.449c-1.82-0.095-3.64,0-5.364,0c-1.054,0-2.012,0.287-2.298,1.437
		c-0.096,0.384-0.096,0.863-0.096,1.341c0,4.023,0,8.142,0,12.166c0,0.67,0,1.246,0,1.916c0,0.383,0.096,0.288-0.288,0.288
		c-2.012,0-4.023,0-6.035,0c-0.479,0-0.958,0-1.34,0c-0.288,0-0.671,0.096-0.958,0c-0.288-0.096-0.192-0.096-0.192-0.479
		c0-1.725,0-3.449,0-5.173c0-2.203,0-4.502,0-6.705c0-1.055,0.287-2.97-0.383-3.928c-0.575-0.862-1.438-0.862-2.396-0.862
		c-1.054,0-2.203,0-3.256,0c-0.671,0-1.437-0.095-2.107,0c-1.149,0.096-1.725,1.054-1.821,2.108c-0.095,3.735,0,7.567,0,11.303
		c0,0.862,0,1.724,0,2.586c0,0.192,0.096,1.054,0,1.15c-0.095,0.096-0.67,0-0.766,0c-0.767,0-1.437,0-2.204,0
		c-4.215,0-8.333,0-12.549,0c-1.532,0-3.256-0.096-4.023,1.724c-0.288,0.67-0.191,1.438-0.191,2.107c0,1.054,0,2.108,0,3.162
		c0,1.053,0,2.011,0,3.065c0,0.767,0,1.533,0.383,2.203C181.528,73.83,183.54,73.542,185.263,73.542z M209.978,102.279
		c0-3.354,0-6.704,0-10.059c0-6.132,0-12.167,0.096-18.298V73.54c2.97,0,5.939,0,8.909,0c4.693,0,9.387,0.191,13.794,2.012
		c2.298,0.958,4.406,2.395,5.938,4.406c1.725,2.3,2.586,5.173,2.682,8.046c0.289,5.364-1.244,11.307-6.129,14.369
		c-4.406,2.775-10.154,3.063-15.136,3.063c-3.161,0-6.226,0-9.387,0c-0.671,0-0.767,0.19-0.767-0.479
		C209.978,104.102,209.978,103.236,209.978,102.279z"/>
	<path fill="#C1C1C1" d="M280.855,117.666c0.099,0.4,0.099,0.9,0.099,1.3c0,5.3-5.25,11.3-13.968,16.2
		c-11.293,6.2-27.145,9.8-43.487,9.8c-16.345,0-32.294-3.6-43.488-9.8c-8.717-4.8-13.967-10.9-13.967-16.2
		c0-0.399,0-0.899,0.099-1.3h-12.977c0,0.4,0,0.9,0,1.3c0,21.5,31.501,39,70.333,39s70.333-17.5,70.333-39
		c0-0.399,0-0.899-0.098-1.3H280.855z"/>
	<g>
		<path fill="#4295C6" d="M431.6,63.4c-3.8,0-7.1,2.1-8.896,5.3c-0.4-0.1-0.9-0.1-1.3-0.1c-3.4,0-6.2,2.2-7.2,5.2
			c-0.2,0-0.3,0-0.5,0c-4.2,0-7.7,3.4-7.7,7.7s3.4,7.7,7.7,7.7h25.6c4.2,0,7.7-3.4,7.7-7.7c0-3.4-2.2-6.2-5.2-7.2c0-0.2,0-0.3,0-0.5
			C441.9,68,437.3,63.4,431.6,63.4L431.6,63.4z"/>
	</g>
	<g>
		<path fill="#797C81" d="M429,3.6c5.7,0,10.4,4.6,10.5,10.4c0,0.2,0,0.4-0.1,0.6l-0.104,2.6l2.4,0.8c2.8,1,4.7,3.6,4.7,6.6
			c0,3.9-3.104,7-7,7h-35c-3.9,0-7-3.1-7-7c0-3.8,3.1-6.9,6.896-7c0.2,0,0.3,0,0.5,0.1l2.7,0.2l0.899-2.5c1-2.8,3.601-4.7,6.601-4.7
			c0.3,0,0.7,0,1.2,0.1l2.5,0.4l1.2-2.2C421.8,5.7,425.3,3.6,429,3.6 M429,0.1c-5.2,0-9.8,2.9-12.2,7.2c-0.6-0.1-1.2-0.2-1.8-0.2
			c-4.6,0-8.4,3-9.9,7.1c-0.196,0-0.396-0.1-0.6-0.1c-5.8,0-10.5,4.7-10.5,10.5c0,5.8,4.7,10.5,10.5,10.5h35
			c5.8,0,10.5-4.7,10.5-10.5c0-4.6-3-8.4-7.1-9.9c0-0.2,0.1-0.4,0.1-0.6C443,6.4,436.7,0.1,429,0.1L429,0.1z"/>
	</g>
	<g>
		<path fill="#797C81" d="M44,14.4c7.2,0,13.1,5.8,13.2,13c0,0.3-0.1,0.5-0.1,0.8L57,31.5l3.1,1.1c3.5,1.2,5.9,4.6,5.9,8.3
			c0,4.9-3.9,8.8-8.8,8.8h-44c-4.9,0-8.8-3.9-8.8-8.8c0-4.8,3.9-8.7,8.7-8.8c0.2,0,0.4,0.1,0.6,0.1l3.3,0.2l1.1-3.2
			c1.2-3.5,4.6-5.9,8.3-5.9c0.4,0,0.9,0.1,1.5,0.2l3.1,0.6l1.5-2.7C34.9,17,39.3,14.4,44,14.4 M44,10c-6.6,0-12.3,3.7-15.3,9
			c-0.8-0.1-1.5-0.2-2.3-0.2c-5.8,0-10.6,3.7-12.4,8.9c-0.3,0-0.5-0.1-0.8-0.1C5.9,27.6,0,33.5,0,40.8C0,48.1,5.9,54,13.2,54h44
			c7.3,0,13.2-5.9,13.2-13.2c0-5.8-3.7-10.6-8.9-12.4c0-0.3,0.1-0.5,0.1-0.8C61.6,17.9,53.7,10,44,10L44,10z"/>
	</g>
	<g>
		<path fill="#A2A4A7" d="M267.9,9.2c3.6,0,6.5,2.9,6.6,6.5c0,0.1,0,0.3,0,0.4l-0.1,1.6l1.5,0.5c1.8,0.6,2.896,2.3,2.896,4.1
			c0,2.4-2,4.4-4.396,4.4h-21.9c-2.4,0-4.4-2-4.4-4.4c0-2.4,1.9-4.3,4.301-4.4c0.103,0,0.199,0,0.303,0L254.4,18l0.5-1.6
			c0.601-1.8,2.301-2.9,4.101-2.9c0.2,0,0.399,0,0.8,0.1l1.5,0.3l0.801-1.4C263.4,10.5,265.5,9.2,267.9,9.2 M267.9,7
			c-3.301,0-6.104,1.8-7.604,4.5c-0.396-0.1-0.8-0.1-1.197-0.1c-2.899,0-5.303,1.9-6.199,4.4c-0.104,0-0.301,0-0.4,0
			c-3.6,0-6.6,2.9-6.6,6.6c0,3.7,2.896,6.6,6.6,6.6h21.9c3.6,0,6.6-2.9,6.6-6.6c0-2.9-1.8-5.3-4.4-6.2c0-0.1,0-0.3,0-0.4
			C276.6,10.9,272.7,7,267.9,7L267.9,7z"/>
	</g>
	<g>
		<path fill="#1F3346" d="M25.8,122c-2.5,0-4.7,1.4-5.9,3.5c-0.3-0.1-0.6-0.1-0.9-0.1c-2.2,0-4.1,1.396-4.8,3.396
			c-0.1,0-0.2,0-0.3,0c-2.8,0-5.1,2.303-5.1,5.104c0,2.8,2.3,5.1,5.1,5.1h17c2.8,0,5.1-2.3,5.1-5.1c0-2.2-1.4-4.104-3.4-4.801
			c0-0.103,0-0.199,0-0.303C32.6,125,29.6,122,25.8,122L25.8,122z"/>
	</g>
</g>
</svg>
